<svg xmlns="http://www.w3.org/2000/svg" xmlns:xlink="http://www.w3.org/1999/xlink" width="1080" zoomAndPan="magnify" viewBox="0 0 810 809.999993" height="1080" preserveAspectRatio="xMidYMid meet" version="1.0"><defs><clipPath id="9762c13b3c"><path d="M 93 384 L 293.699219 384 L 293.699219 514 L 93 514 Z M 93 384 " clip-rule="nonzero"/></clipPath><clipPath id="3aa306f2f0"><path d="M 13.199219 529 L 270 529 L 270 576 L 13.199219 576 Z M 13.199219 529 " clip-rule="nonzero"/></clipPath><clipPath id="af511983fa"><path d="M 54 322.507812 L 292 322.507812 L 292 368 L 54 368 Z M 54 322.507812 " clip-rule="nonzero"/></clipPath><clipPath id="556d895693"><path d="M 198.535156 254.753906 L 666.535156 254.753906 L 666.535156 702.503906 L 198.535156 702.503906 Z M 198.535156 254.753906 " clip-rule="nonzero"/></clipPath><clipPath id="5e1ce6f6d1"><path d="M 559.136719 313.144531 L 796.886719 313.144531 L 796.886719 643.894531 L 559.136719 643.894531 Z M 559.136719 313.144531 " clip-rule="nonzero"/></clipPath><clipPath id="73d59f897c"><path d="M 318 107.804688 L 624 107.804688 L 624 258.554688 L 318 258.554688 Z M 318 107.804688 " clip-rule="nonzero"/></clipPath><clipPath id="36a88f9fe9"><path d="M 490.355469 313.144531 L 666.605469 313.144531 L 666.605469 543.394531 L 490.355469 543.394531 Z M 490.355469 313.144531 " clip-rule="nonzero"/></clipPath></defs><g clip-path="url(#9762c13b3c)"><path fill="#ffffff" d="M 93.832031 512.957031 C 95.890625 502.164062 97.773438 491.882812 99.828125 481.660156 C 105.824219 451.394531 112.050781 421.1875 117.816406 390.863281 C 118.730469 386.066406 120.5 384.355469 125.414062 384.46875 C 139.746094 384.753906 154.136719 384.582031 169.613281 384.582031 C 166.871094 398.6875 164.300781 411.878906 161.5625 425.699219 C 163.730469 425.925781 165.445312 426.269531 167.214844 426.269531 C 181.605469 426.328125 196.050781 426.382812 210.441406 426.269531 C 225.691406 426.097656 237.113281 416.734375 240.421875 401.886719 C 241.621094 396.460938 242.480469 391.035156 243.679688 384.640625 C 247.960938 384.640625 252.414062 384.640625 256.871094 384.640625 C 267.148438 384.640625 277.484375 384.808594 287.765625 384.582031 C 292.5625 384.46875 293.53125 386.179688 293.019531 390.804688 C 290.5625 411.480469 281.253906 428.269531 265.378906 441.515625 C 263.953125 442.714844 262.582031 443.914062 261.152344 445.113281 C 261.039062 445.226562 260.980469 445.457031 260.238281 446.828125 C 260.925781 447.171875 262.066406 447.683594 263.039062 448.371094 C 280.339844 460.417969 284.910156 477.492188 281.652344 497.25 C 279.027344 513.070312 278.800781 513.070312 262.753906 513.070312 C 251.503906 513.070312 240.195312 513.070312 228.316406 513.070312 C 229.460938 507.875 230.542969 503.304688 231.402344 498.738281 C 234.828125 481.035156 227.230469 471.78125 209.359375 471.726562 C 192.453125 471.667969 175.609375 471.953125 158.707031 471.609375 C 153.453125 471.496094 151.511719 473.324219 150.652344 478.292969 C 149.054688 488 146.65625 497.652344 144.941406 507.359375 C 144.144531 511.640625 142.488281 513.699219 137.746094 513.585938 C 125.183594 513.296875 112.621094 513.527344 100.058594 513.46875 C 98.34375 513.46875 96.574219 513.183594 93.832031 512.957031 Z M 93.832031 512.957031 " fill-opacity="1" fill-rule="nonzero"/></g><g clip-path="url(#3aa306f2f0)"><path fill="#ffffff" d="M 13.429688 575.03125 C 16.285156 560.582031 18.851562 546.707031 21.9375 532.886719 C 22.222656 531.574219 25.59375 530.085938 27.535156 530.03125 C 48.71875 529.800781 69.90625 529.917969 91.148438 529.917969 C 148.371094 529.917969 205.589844 529.972656 262.808594 529.972656 C 264.636719 529.972656 266.464844 529.972656 269.492188 529.972656 C 267.777344 532.828125 266.691406 534.882812 265.320312 536.769531 C 247.21875 561.953125 222.378906 574.859375 191.65625 575.144531 C 133.40625 575.714844 75.160156 575.371094 16.910156 575.429688 C 16.054688 575.488281 15.253906 575.316406 13.429688 575.03125 Z M 13.429688 575.03125 " fill-opacity="1" fill-rule="nonzero"/></g><g clip-path="url(#af511983fa)"><path fill="#ffffff" d="M 54.828125 367.792969 C 57.855469 352.71875 60.824219 337.925781 63.910156 322.792969 C 66.308594 322.679688 68.363281 322.507812 70.363281 322.507812 C 123.242188 322.507812 176.121094 322.507812 229.003906 322.566406 C 241.851562 322.566406 254.414062 324.507812 265.894531 330.84375 C 280.285156 338.839844 288.679688 351.003906 291.761719 367.792969 C 212.671875 367.792969 134.035156 367.792969 54.828125 367.792969 Z M 54.828125 367.792969 " fill-opacity="1" fill-rule="nonzero"/></g><g clip-path="url(#556d895693)"><path fill="#ffffff" d="M 495.527344 284.589844 C 495.527344 272.96875 491.058594 267.15625 482.234375 267.15625 C 463.808594 267.15625 436.445312 283.804688 400.59375 317.214844 C 364.519531 350.628906 346.648438 376.105469 346.648438 393.761719 C 346.648438 404.597656 351.453125 413.761719 361.503906 421.25 C 371.332031 428.734375 383.394531 435.105469 397.691406 440.578125 C 411.984375 445.945312 426.058594 452.089844 440.242188 459.015625 C 454.203125 465.832031 466.265625 476.226562 476.09375 490.082031 C 485.921875 503.9375 490.949219 521.035156 490.949219 541.148438 C 490.949219 546.398438 490.722656 549.976562 490.390625 551.988281 C 573.929688 527.402344 630.21875 507.289062 659.257812 491.644531 C 661.601562 490.417969 663.167969 489.859375 663.390625 489.859375 C 665.289062 489.859375 666.40625 491.199219 666.40625 493.992188 C 666.40625 496.117188 665.066406 497.566406 662.273438 498.796875 C 636.027344 513.210938 578.285156 534.109375 488.601562 561.484375 C 479.332031 597.242188 452.304688 629.757812 407.296875 658.8125 C 362.285156 687.863281 307.671875 702.503906 243.339844 702.503906 C 213.519531 702.503906 198.667969 696.132812 198.667969 683.171875 C 198.667969 675.574219 201.683594 667.863281 207.9375 660.265625 C 214.191406 652.667969 224.132812 645.179688 237.757812 637.691406 C 251.492188 630.207031 264.894531 623.5 278.523438 617.46875 C 291.925781 611.546875 310.242188 604.617188 333.359375 596.90625 C 356.476562 589.308594 375.910156 583.050781 391.882812 578.132812 C 407.855469 573.328125 429.183594 567.070312 456.101562 559.363281 C 459.675781 548.96875 461.460938 538.800781 461.460938 529.304688 C 461.460938 513.660156 456.660156 500.585938 447.054688 490.304688 C 437.339844 480.023438 425.722656 472.316406 411.875 467.175781 C 398.023438 461.921875 384.175781 456.78125 370.328125 451.53125 C 356.476562 446.277344 344.640625 438.902344 335.144531 429.515625 C 325.429688 420.132812 320.738281 408.175781 320.738281 393.648438 C 320.738281 378.339844 330.566406 359.679688 350.222656 337.441406 C 369.878906 315.429688 393 295.984375 419.804688 279.449219 C 446.609375 262.910156 468.722656 254.753906 486.480469 254.753906 C 507.03125 254.753906 517.304688 266.933594 517.304688 291.515625 C 517.304688 297.886719 515.183594 306.824219 510.9375 318 C 506.808594 329.285156 501.335938 334.871094 494.96875 334.871094 C 491.730469 334.871094 489.050781 333.753906 486.816406 331.519531 C 484.582031 329.285156 483.464844 326.714844 483.464844 323.363281 C 483.464844 322.132812 485.585938 316.992188 489.832031 307.941406 C 493.292969 299.449219 495.527344 291.515625 495.527344 284.589844 Z M 452.191406 569.304688 C 417.683594 579.476562 389.089844 588.191406 366.976562 595.566406 C 344.640625 603.050781 321.519531 611.546875 297.398438 620.929688 C 273.273438 630.316406 255.292969 639.816406 243.453125 648.980469 C 231.726562 658.253906 225.695312 667.304688 225.695312 676.132812 C 225.695312 685.851562 239.542969 690.546875 267.242188 690.546875 C 309.347656 690.546875 347.542969 678.367188 381.496094 653.785156 C 415.113281 629.199219 438.789062 601.042969 452.191406 569.304688 Z M 452.191406 569.304688 " fill-opacity="1" fill-rule="nonzero"/></g><g clip-path="url(#5e1ce6f6d1)"><path fill="#ffffff" d="M 796.621094 407.398438 C 796.753906 459.621094 754.304688 502.15625 702.113281 502.15625 L 650.628906 502.15625 C 628.304688 502.15625 610.207031 520.253906 610.207031 542.574219 L 610.207031 594.605469 L 561.011719 643.800781 L 561.011719 555.308594 C 561.011719 498.785156 606.828125 452.957031 663.359375 452.957031 L 702.121094 452.957031 C 727.039062 452.957031 747.332031 432.738281 747.433594 407.832031 C 747.539062 382.808594 726.855469 362.332031 701.824219 362.332031 L 608.375 362.332031 L 559.175781 313.144531 L 701.667969 313.144531 C 753.832031 313.144531 796.488281 355.234375 796.621094 407.398438 Z M 796.621094 407.398438 " fill-opacity="1" fill-rule="nonzero"/></g><g clip-path="url(#73d59f897c)"><path fill="#ffffff" d="M 619.523438 218.480469 C 623.617188 226.820312 623.65625 246.445312 623.65625 246.445312 C 623.175781 246.777344 622.695312 247.035156 622.21875 247.257812 L 619.230469 234.75 C 619.230469 234.75 618.378906 243.050781 618.601562 247.882812 C 612.808594 249.800781 609.414062 246.8125 609.414062 246.8125 C 607.828125 231.320312 609.527344 222.613281 610.929688 218.296875 C 609.894531 217.226562 609.269531 215.824219 609.230469 214.238281 C 609.15625 211.65625 610.742188 209.367188 612.992188 208.445312 L 612.625 180.148438 L 574.957031 197.195312 C 572.117188 198.484375 568.871094 196.492188 568.761719 193.355469 L 568.316406 182.179688 C 568.242188 180.738281 567.503906 179.449219 566.324219 178.675781 C 507.335938 139.789062 459.003906 142.777344 428.902344 152.113281 C 396.105469 162.292969 377.585938 181.589844 376.808594 182.398438 L 376.773438 182.4375 C 375.960938 183.285156 375.554688 184.390625 375.554688 185.535156 L 375.738281 198.042969 C 375.777344 201.214844 372.605469 203.390625 369.652344 202.175781 L 321.066406 182.253906 C 317.488281 180.777344 317.414062 175.757812 320.917969 174.171875 L 467.195312 108.320312 C 468.300781 107.839844 469.519531 107.804688 470.625 108.246094 L 621.035156 168.234375 C 624.652344 169.671875 624.761719 174.726562 621.222656 176.351562 L 616.203125 178.601562 L 616.574219 208.1875 C 619.265625 208.742188 621.292969 211.101562 621.367188 213.941406 C 621.441406 215.714844 620.703125 217.335938 619.523438 218.480469 Z M 382.96875 188.304688 C 382.75 188.488281 382.601562 188.78125 382.601562 189.113281 L 382.601562 256.960938 C 382.601562 257.769531 383.488281 258.289062 384.1875 257.84375 C 395.109375 251.167969 462.324219 214.496094 560.570312 258.175781 C 561.269531 258.472656 562.046875 257.992188 562.046875 257.253906 L 562.046875 186.164062 C 562.046875 185.832031 561.898438 185.5 561.601562 185.316406 C 554.628906 180.371094 464.871094 119.203125 382.96875 188.304688 Z M 382.96875 188.304688 " fill-opacity="1" fill-rule="nonzero"/></g><g clip-path="url(#36a88f9fe9)"><path fill="#ffffff" d="M 496.199219 504.859375 C 499.996094 493.679688 505.59375 482.078125 513.246094 469.546875 C 517.777344 462.125 519.195312 459.359375 520.523438 455.324219 C 521.9375 451.042969 524.050781 447.300781 525.695312 446.171875 C 526.605469 445.546875 527.671875 445.332031 530.820312 445.140625 C 533.171875 444.996094 535.199219 445.050781 535.78125 445.269531 C 536.320312 445.476562 537.214844 445.53125 537.769531 445.398438 C 540.097656 444.832031 545.414062 442.453125 548.628906 440.53125 C 550.527344 439.402344 553 438.066406 554.125 437.570312 C 556.109375 436.691406 556.183594 436.605469 556.628906 434.609375 L 557.089844 432.550781 L 555.011719 430.421875 C 550.082031 425.371094 547.3125 419.359375 546.304688 411.535156 C 546.160156 410.417969 545.6875 409.152344 545.136719 408.425781 C 544.625 407.75 543.953125 406.589844 543.640625 405.839844 C 542.898438 404.066406 541.621094 398.980469 541.613281 397.777344 C 541.613281 397.261719 541.234375 396.125 540.773438 395.257812 C 540.101562 393.988281 540.011719 393.476562 540.3125 392.621094 C 540.625 391.742188 540.910156 391.558594 541.996094 391.539062 C 543.253906 391.515625 543.300781 391.464844 543.179688 390.21875 C 543.113281 389.503906 543.039062 386.292969 543.019531 383.082031 C 542.992188 378.171875 543.148438 376.375 544.019531 371.824219 C 544.589844 368.84375 544.914062 366.261719 544.738281 366.089844 C 544.164062 365.511719 526.832031 360.46875 525.429688 360.46875 C 524.910156 360.46875 524.648438 360.710938 524.648438 361.195312 C 524.832031 362.140625 525.207031 364.214844 525.761719 367.0625 L 526.320312 372.527344 C 526.628906 375.535156 527.300781 379.878906 527.8125 382.179688 C 529.117188 388.039062 530.308594 394.457031 530.289062 395.542969 C 530.28125 396.046875 530.597656 397.984375 530.988281 399.851562 C 531.382812 401.714844 532.070312 405.277344 532.515625 407.765625 C 534.730469 420.136719 534.664062 419.636719 534.128906 419.636719 C 533.796875 419.636719 533.265625 417.410156 532.5625 413.046875 C 532.0625 409.960938 531.367188 407.578125 530.964844 407.578125 C 530.808594 407.578125 530.683594 407.957031 530.6875 408.425781 C 530.703125 410.085938 532.179688 420.242188 532.730469 422.464844 C 533.324219 424.855469 533.457031 427.183594 533.078125 428.585938 C 532.769531 429.75 532.445312 429.652344 531.828125 428.210938 L 531.308594 426.984375 L 531.089844 428.492188 C 530.90625 429.742188 530.707031 430.019531 529.945312 430.105469 C 529.4375 430.160156 528.746094 430.457031 528.40625 430.761719 C 527.402344 431.675781 523.945312 431.5 522.863281 430.484375 C 522.375 430.023438 521.601562 429.640625 521.144531 429.636719 C 520.359375 429.625 520.320312 429.480469 520.417969 426.984375 C 520.476562 425.535156 520.6875 423.160156 520.886719 421.710938 C 521.304688 418.667969 521.09375 403.691406 520.511719 395.140625 C 520.292969 391.929688 520.011719 382.476562 519.882812 374.136719 C 519.722656 363.628906 519.523438 358.871094 519.230469 358.636719 C 518.488281 358.046875 514.753906 357.164062 511.882812 356.898438 C 508.535156 356.59375 507.3125 356.175781 507.3125 355.339844 C 507.3125 354.15625 511.527344 349.910156 516.15625 346.429688 C 518.699219 344.515625 521.050781 342.484375 521.378906 341.914062 C 521.703125 341.34375 522.617188 340.585938 523.40625 340.226562 C 524.191406 339.867188 527.210938 337.601562 530.113281 335.1875 C 533.015625 332.777344 536.832031 329.769531 538.59375 328.507812 C 540.355469 327.242188 544.125 324.53125 546.972656 322.484375 C 549.816406 320.433594 553.546875 317.871094 555.261719 316.789062 C 556.976562 315.707031 558.839844 314.464844 559.40625 314.023438 L 560.433594 313.226562 L 565.625 314.847656 C 587.988281 321.832031 603.914062 327.019531 616.980469 331.578125 C 630.648438 336.347656 634.898438 337.960938 639.945312 340.289062 C 642.757812 341.585938 645.945312 342.9375 647.027344 343.296875 C 648.113281 343.652344 649.378906 344.25 649.84375 344.625 C 650.582031 345.226562 650.621094 345.386719 650.15625 345.949219 C 649.25 347.039062 644.40625 349.28125 642.324219 349.574219 C 640.054688 349.894531 635.585938 352.496094 618.535156 363.433594 L 608.21875 370.050781 L 608.453125 372.578125 C 608.582031 373.96875 609.039062 376.585938 609.46875 378.394531 C 610.253906 381.695312 610.316406 385.894531 609.625 388.511719 C 609.351562 389.539062 609.386719 389.585938 610.234375 389.320312 C 612.535156 388.589844 613.382812 388.65625 614.296875 389.628906 C 615.503906 390.914062 615.855469 395 614.949219 397.171875 C 614.613281 397.980469 614.234375 399.589844 614.113281 400.753906 C 613.601562 405.585938 609.105469 412.082031 605.847656 412.691406 C 605.144531 412.824219 604.421875 413.125 604.242188 413.363281 C 604.0625 413.601562 603.367188 415.539062 602.703125 417.671875 L 601.492188 421.550781 L 603.554688 425.777344 C 604.6875 428.097656 605.902344 431.0625 606.257812 432.359375 C 606.972656 434.960938 606.910156 434.894531 613.398438 439.949219 C 617.191406 442.902344 618.230469 443.945312 621.691406 448.277344 C 622.726562 449.574219 624.679688 451.527344 626.023438 452.621094 C 627.371094 453.714844 629.917969 455.910156 631.679688 457.496094 C 634.382812 459.929688 635.027344 460.34375 635.824219 460.140625 C 639.289062 459.257812 639.460938 459.3125 642.21875 462.085938 C 643.632812 463.507812 645.738281 465.496094 646.902344 466.5 C 651.011719 470.050781 653.875 476.648438 661.003906 499 C 662.664062 504.203125 664.207031 509.714844 664.441406 511.25 C 666.203125 521.695312 666.199219 532.105469 666.199219 542.777344 L 666.4375 543.625 L 490.351562 543.625 C 490.351562 527.203125 492.972656 514.320312 496.195312 504.859375 Z M 531.117188 423.503906 C 530.960938 420.867188 530.300781 419.878906 530.308594 422.296875 C 530.3125 424.132812 530.632812 425.667969 531.007812 425.667969 C 531.136719 425.667969 531.1875 424.695312 531.117188 423.503906 Z M 535.042969 428.277344 C 534.511719 426.714844 533.820312 421.625 534.054688 420.996094 C 534.429688 419.980469 534.613281 420.449219 535.40625 424.445312 C 535.933594 427.09375 535.996094 428.042969 535.664062 428.371094 C 535.332031 428.703125 535.183594 428.679688 535.042969 428.277344 Z M 535.042969 428.277344 " fill-opacity="1" fill-rule="nonzero"/></g></svg>